REM DIRINDEX 1\2\6,1\2\7,1\2\8,1\2\9,1\3\10,1\3\11,1\4\12,1\4\13,1\4\14,1\5\15,1\5\16,1\5\17
REM DIRNAME cjc029,folder01,folder02,folder03,folder04,folder05,folder06,folder07,folder08,folder09,folder10,folder11,folder12,folder13,folder14,folder15,folder16
TITLE ""
FILE "1400_2_sec05_0433_0448.mp3" MP3
  TRACK 01 AUDIO
    TITLE "0:"
    INDEX 01 00:00:00
  TRACK 02 AUDIO
    TITLE "13:cjc029_2449"
    INDEX 01 00:00:19
  TRACK 03 AUDIO
    TITLE "0:"
    INDEX 01 00:01:28
  TRACK 04 AUDIO
    TITLE "14:cjc029_2450"
    INDEX 01 00:01:32
  TRACK 05 AUDIO
    TITLE "0:"
    INDEX 01 00:04:46
  TRACK 06 AUDIO
    TITLE "13:cjc029_2451"
    INDEX 01 00:05:28
  TRACK 07 AUDIO
    TITLE "0:"
    INDEX 01 00:06:47
  TRACK 08 AUDIO
    TITLE "14:cjc029_2452"
    INDEX 01 00:06:53
  TRACK 09 AUDIO
    TITLE "0:"
    INDEX 01 00:08:17
  TRACK 10 AUDIO
    TITLE "13:cjc029_2453"
    INDEX 01 00:09:02
  TRACK 11 AUDIO
    TITLE "0:"
    INDEX 01 00:09:73
  TRACK 12 AUDIO
    TITLE "14:cjc029_2454"
    INDEX 01 00:10:02
  TRACK 13 AUDIO
    TITLE "0:"
    INDEX 01 00:12:12
  TRACK 14 AUDIO
    TITLE "13:cjc029_2455"
    INDEX 01 00:12:69
  TRACK 15 AUDIO
    TITLE "0:"
    INDEX 01 00:14:11
  TRACK 16 AUDIO
    TITLE "14:cjc029_2456"
    INDEX 01 00:14:15
  TRACK 17 AUDIO
    TITLE "0:"
    INDEX 01 00:18:29
  TRACK 18 AUDIO
    TITLE "13:cjc029_2457"
    INDEX 01 00:19:09
  TRACK 19 AUDIO
    TITLE "0:"
    INDEX 01 00:20:16
  TRACK 20 AUDIO
    TITLE "14:cjc029_2458"
    INDEX 01 00:20:22
  TRACK 21 AUDIO
    TITLE "0:"
    INDEX 01 00:23:20
  TRACK 22 AUDIO
    TITLE "13:cjc029_2459"
    INDEX 01 00:23:71
  TRACK 23 AUDIO
    TITLE "0:"
    INDEX 01 00:25:21
  TRACK 24 AUDIO
    TITLE "14:cjc029_2460"
    INDEX 01 00:25:29
  TRACK 25 AUDIO
    TITLE "0:"
    INDEX 01 00:26:62
  TRACK 26 AUDIO
    TITLE "13:cjc029_2461"
    INDEX 01 00:27:47
  TRACK 27 AUDIO
    TITLE "0:"
    INDEX 01 00:28:53
  TRACK 28 AUDIO
    TITLE "14:cjc029_2462"
    INDEX 01 00:28:59
  TRACK 29 AUDIO
    TITLE "0:"
    INDEX 01 00:29:68
  TRACK 30 AUDIO
    TITLE "13:cjc029_2463"
    INDEX 01 00:30:50
  TRACK 31 AUDIO
    TITLE "0:"
    INDEX 01 00:31:67
  TRACK 32 AUDIO
    TITLE "14:cjc029_2464"
    INDEX 01 00:31:73
  TRACK 33 AUDIO
    TITLE "0:"
    INDEX 01 00:34:47
  TRACK 34 AUDIO
    TITLE "13:cjc029_2465"
    INDEX 01 00:35:29
  TRACK 35 AUDIO
    TITLE "0:"
    INDEX 01 00:36:52
  TRACK 36 AUDIO
    TITLE "14:cjc029_2466"
    INDEX 01 00:36:56
  TRACK 37 AUDIO
    TITLE "0:"
    INDEX 01 00:40:17
  TRACK 38 AUDIO
    TITLE "13:cjc029_2467"
    INDEX 01 00:41:00
  TRACK 39 AUDIO
    TITLE "0:"
    INDEX 01 00:42:10
  TRACK 40 AUDIO
    TITLE "14:cjc029_2468"
    INDEX 01 00:42:16
  TRACK 41 AUDIO
    TITLE "0:"
    INDEX 01 00:43:39
  TRACK 42 AUDIO
    TITLE "12:cjc029_2469"
    INDEX 01 00:45:14
  TRACK 43 AUDIO
    TITLE "0:"
    INDEX 01 00:46:45
  TRACK 44 AUDIO
    TITLE "13:cjc029_2470"
    INDEX 01 00:47:46
  TRACK 45 AUDIO
    TITLE "0:"
    INDEX 01 00:48:65
  TRACK 46 AUDIO
    TITLE "14:cjc029_2471"
    INDEX 01 00:48:69
  TRACK 47 AUDIO
    TITLE "0:"
    INDEX 01 00:49:70
  TRACK 48 AUDIO
    TITLE "13:cjc029_2472"
    INDEX 01 00:50:50
  TRACK 49 AUDIO
    TITLE "0:"
    INDEX 01 00:51:63
  TRACK 50 AUDIO
    TITLE "14:cjc029_2473"
    INDEX 01 00:51:69
  TRACK 51 AUDIO
    TITLE "0:"
    INDEX 01 00:55:44
  TRACK 52 AUDIO
    TITLE "13:cjc029_2474"
    INDEX 01 00:56:25
  TRACK 53 AUDIO
    TITLE "0:"
    INDEX 01 00:57:41
  TRACK 54 AUDIO
    TITLE "14:cjc029_2475"
    INDEX 01 00:57:48
  TRACK 55 AUDIO
    TITLE "0:"
    INDEX 01 01:00:12
  TRACK 56 AUDIO
    TITLE "13:cjc029_2476"
    INDEX 01 01:00:68
  TRACK 57 AUDIO
    TITLE "0:"
    INDEX 01 01:01:74
  TRACK 58 AUDIO
    TITLE "14:cjc029_2477"
    INDEX 01 01:02:01
  TRACK 59 AUDIO
    TITLE "0:"
    INDEX 01 01:04:03
  TRACK 60 AUDIO
    TITLE "13:cjc029_2478"
    INDEX 01 01:04:58
  TRACK 61 AUDIO
    TITLE "0:"
    INDEX 01 01:05:69
  TRACK 62 AUDIO
    TITLE "14:cjc029_2479"
    INDEX 01 01:05:73
  TRACK 63 AUDIO
    TITLE "0:"
    INDEX 01 01:07:70
  TRACK 64 AUDIO
    TITLE "13:cjc029_2480"
    INDEX 01 01:08:52
  TRACK 65 AUDIO
    TITLE "0:"
    INDEX 01 01:09:63
  TRACK 66 AUDIO
    TITLE "14:cjc029_2481"
    INDEX 01 01:09:65
  TRACK 67 AUDIO
    TITLE "0:"
    INDEX 01 01:13:40
